<svg width="391" height="99" viewBox="0 0 391 99" fill="none" xmlns="http://www.w3.org/2000/svg">
<path d="M45.2173 6.88295C46.7569 4.21628 50.6059 4.21628 52.1455 6.88295L87.3766 67.905C88.9162 70.5717 86.9917 73.905 83.9125 73.905H13.4503C10.3711 73.905 8.44657 70.5717 9.98617 67.905L45.2173 6.88295Z" fill="#C60349"/>
<path d="M52.2625 91.3628C50.7229 94.0294 46.8739 94.0294 45.3343 91.3628L10.1032 30.3407C8.56361 27.674 10.4881 24.3407 13.5673 24.3407L84.0295 24.3407C87.1087 24.3407 89.0332 27.674 87.4936 30.3407L52.2625 91.3628Z" fill="#C60349"/>
<path d="M102.937 28.06C108.937 27.54 113.357 27.28 116.197 27.28C119.037 27.28 121.417 27.68 123.337 28.48C125.257 29.24 126.797 30.26 127.957 31.54C129.117 32.78 130.037 34.34 130.717 36.22C131.917 39.38 132.517 43.48 132.517 48.52C132.517 63.36 126.977 70.78 115.897 70.78C114.097 70.78 109.777 70.52 102.937 70V28.06ZM115.777 64.72C118.777 64.72 120.797 64.24 121.837 63.28C123.877 61.4 124.897 56.52 124.897 48.64C124.897 40.72 123.937 36 122.017 34.48C121.097 33.72 119.337 33.34 116.737 33.34L109.897 33.7L109.957 64.24C112.117 64.56 114.057 64.72 115.777 64.72ZM138.713 53.32V47.44H153.293V53.32H138.713ZM161.414 70V28.06H168.434L168.254 45.64H184.214L184.034 28.06H191.054V70H184.034L184.214 51.7H168.314L168.434 70H161.414ZM202.722 70V34.9H209.682V70H202.722ZM202.182 30.22V24.58H210.222V30.22H202.182ZM231.676 65.02C233.236 65.02 234.416 64.66 235.216 63.94C236.016 63.22 236.416 62.06 236.416 60.46C236.416 58.86 235.896 57.72 234.856 57.04C233.816 56.32 232.596 55.76 231.196 55.36C229.796 54.92 229.016 54.68 228.856 54.64C228.696 54.56 228.236 54.4 227.476 54.16C226.716 53.92 225.996 53.68 225.316 53.44C224.636 53.2 223.756 52.8 222.676 52.24C221.636 51.68 220.876 51.08 220.396 50.44C219.076 48.84 218.416 46.84 218.416 44.44C218.416 41.28 219.416 38.78 221.416 36.94C223.456 35.06 226.396 34.12 230.236 34.12C234.116 34.12 237.916 34.76 241.636 36.04L240.556 41.56C236.396 40.56 233.056 40.06 230.536 40.06C228.056 40.06 226.516 40.4 225.916 41.08C225.356 41.72 225.076 42.64 225.076 43.84C225.076 45.04 225.636 46.02 226.756 46.78C227.916 47.5 229.536 48.18 231.616 48.82C233.736 49.42 235.016 49.8 235.456 49.96C235.896 50.08 236.576 50.32 237.496 50.68C238.416 51 239.056 51.3 239.416 51.58C239.816 51.86 240.316 52.26 240.916 52.78C241.516 53.26 241.956 53.8 242.236 54.4C242.876 55.84 243.196 57.44 243.196 59.2C243.196 62.72 242.136 65.54 240.016 67.66C237.936 69.74 234.976 70.78 231.136 70.78C229.216 70.78 227.176 70.52 225.016 70C222.896 69.48 220.656 68.7 218.296 67.66L219.976 62.02C224.656 64.02 228.556 65.02 231.676 65.02ZM252.42 58.6V42.1H248.4V37.78L252.72 36.94L254.1 28.66H259.44V36.82H266.46V42.22H259.38V58.9C259.38 61.58 259.54 63.24 259.86 63.88C260.22 64.48 261.12 64.78 262.56 64.78L266.4 64.6V70.18C265.04 70.5 263.46 70.66 261.66 70.66C258.5 70.66 256.16 69.84 254.64 68.2C253.16 66.52 252.42 63.32 252.42 58.6ZM301.367 52.48C301.367 58.48 300.287 63.04 298.127 66.16C295.967 69.24 292.307 70.78 287.147 70.78C282.027 70.78 278.367 69.24 276.167 66.16C274.007 63.04 272.927 58.48 272.927 52.48C272.927 46.48 274.007 41.92 276.167 38.8C278.367 35.68 282.027 34.12 287.147 34.12C292.307 34.12 295.967 35.68 298.127 38.8C300.287 41.92 301.367 46.48 301.367 52.48ZM281.567 62.8C282.567 64.44 284.447 65.26 287.207 65.26C289.967 65.26 291.827 64.44 292.787 62.8C293.747 61.12 294.227 57.68 294.227 52.48C294.227 47.24 293.747 43.8 292.787 42.16C291.827 40.52 289.967 39.7 287.207 39.7C284.447 39.7 282.567 40.52 281.567 42.16C280.607 43.8 280.127 47.24 280.127 52.48C280.127 57.68 280.607 61.12 281.567 62.8ZM321.266 35.5C323.186 34.58 324.726 34.12 325.886 34.12C327.046 34.12 328.106 34.28 329.066 34.6L328.526 40.84C327.526 40.76 326.626 40.72 325.826 40.72C322.826 40.72 320.086 41.6 317.606 43.36V70H310.646V34.9H315.026C315.386 36.78 315.686 38 315.926 38.56H316.286C317.726 37.4 319.386 36.38 321.266 35.5ZM336.461 79.96L341.381 66.76L329.141 34.9H336.881L344.321 59.62H344.621L351.941 34.9H359.261L346.961 67.96L343.661 79.96H336.461ZM375.583 65.02C377.143 65.02 378.323 64.66 379.123 63.94C379.923 63.22 380.323 62.06 380.323 60.46C380.323 58.86 379.803 57.72 378.763 57.04C377.723 56.32 376.503 55.76 375.103 55.36C373.703 54.92 372.923 54.68 372.763 54.64C372.603 54.56 372.143 54.4 371.383 54.16C370.623 53.92 369.903 53.68 369.223 53.44C368.543 53.2 367.663 52.8 366.583 52.24C365.543 51.68 364.783 51.08 364.303 50.44C362.983 48.84 362.323 46.84 362.323 44.44C362.323 41.28 363.323 38.78 365.323 36.94C367.363 35.06 370.303 34.12 374.143 34.12C378.023 34.12 381.823 34.76 385.543 36.04L384.463 41.56C380.303 40.56 376.963 40.06 374.443 40.06C371.963 40.06 370.423 40.4 369.823 41.08C369.263 41.72 368.983 42.64 368.983 43.84C368.983 45.04 369.543 46.02 370.663 46.78C371.823 47.5 373.443 48.18 375.523 48.82C377.643 49.42 378.923 49.8 379.363 49.96C379.803 50.08 380.483 50.32 381.403 50.68C382.323 51 382.963 51.3 383.323 51.58C383.723 51.86 384.223 52.26 384.823 52.78C385.423 53.26 385.863 53.8 386.143 54.4C386.783 55.84 387.103 57.44 387.103 59.2C387.103 62.72 386.043 65.54 383.923 67.66C381.843 69.74 378.883 70.78 375.043 70.78C373.123 70.78 371.083 70.52 368.923 70C366.803 69.48 364.563 68.7 362.203 67.66L363.883 62.02C368.563 64.02 372.463 65.02 375.583 65.02Z" fill="#C60349"/>
</svg>
