<svg width="800" height="540" viewBox="0 0 800 540" fill="none" xmlns="http://www.w3.org/2000/svg">
<rect width="800" height="540" rx="16" fill="#C60349"/>
<rect x="25" y="23" width="749" height="414" rx="32" fill="#FDFFFC"/>
<path d="M50.3836 466.864C51.2479 465.367 53.4086 465.367 54.2729 466.864L74.0506 501.12C74.9149 502.617 73.8345 504.488 72.106 504.488H32.5506C30.822 504.488 29.7417 502.617 30.6059 501.12L50.3836 466.864Z" fill="#FDFFFC"/>
<path d="M54.3386 514.288C53.4743 515.785 51.3136 515.785 50.4493 514.288L30.6716 480.032C29.8073 478.535 30.8877 476.664 32.6162 476.664L72.1716 476.664C73.9002 476.664 74.9806 478.535 74.1163 480.032L54.3386 514.288Z" fill="#FDFFFC"/>
<path d="M82.7858 478.877C86.154 478.585 88.6353 478.439 90.2295 478.439C91.8238 478.439 93.1599 478.663 94.2377 479.112C95.3156 479.539 96.1801 480.112 96.8313 480.83C97.4824 481.526 97.9989 482.402 98.3806 483.457C99.0543 485.231 99.3911 487.533 99.3911 490.362C99.3911 498.693 96.2811 502.858 90.0611 502.858C89.0507 502.858 86.6256 502.712 82.7858 502.421V478.877ZM89.9938 499.456C91.6779 499.456 92.8119 499.187 93.3957 498.648C94.5409 497.593 95.1135 494.853 95.1135 490.43C95.1135 485.984 94.5746 483.334 93.4967 482.481C92.9803 482.054 91.9923 481.841 90.5327 481.841L86.6929 482.043L86.7266 499.187C87.9392 499.367 89.0282 499.456 89.9938 499.456ZM102.87 493.057V489.756H111.054V493.057H102.87ZM115.613 502.421V478.877H119.554L119.453 488.746H128.412L128.311 478.877H132.252V502.421H128.311L128.412 492.147H119.486L119.554 502.421H115.613ZM138.802 502.421V482.716H142.709V502.421H138.802ZM138.499 480.089V476.923H143.012V480.089H138.499ZM155.056 499.625C155.932 499.625 156.594 499.423 157.043 499.019C157.493 498.614 157.717 497.963 157.717 497.065C157.717 496.167 157.425 495.527 156.841 495.145C156.258 494.741 155.573 494.427 154.787 494.202C154.001 493.955 153.563 493.82 153.473 493.798C153.383 493.753 153.125 493.663 152.698 493.528C152.272 493.394 151.868 493.259 151.486 493.124C151.104 492.99 150.61 492.765 150.004 492.451C149.42 492.136 148.993 491.799 148.724 491.44C147.983 490.542 147.612 489.419 147.612 488.072C147.612 486.298 148.174 484.895 149.297 483.862C150.442 482.806 152.092 482.279 154.248 482.279C156.426 482.279 158.559 482.638 160.647 483.356L160.041 486.455C157.706 485.894 155.831 485.613 154.416 485.613C153.024 485.613 152.16 485.804 151.823 486.186C151.508 486.545 151.351 487.061 151.351 487.735C151.351 488.409 151.666 488.959 152.294 489.386C152.945 489.79 153.855 490.171 155.023 490.531C156.213 490.868 156.931 491.081 157.178 491.171C157.425 491.238 157.807 491.373 158.323 491.575C158.84 491.755 159.199 491.923 159.401 492.08C159.626 492.237 159.906 492.462 160.243 492.754C160.58 493.023 160.827 493.326 160.984 493.663C161.344 494.472 161.523 495.37 161.523 496.358C161.523 498.334 160.928 499.917 159.738 501.107C158.57 502.275 156.909 502.858 154.753 502.858C153.675 502.858 152.53 502.712 151.317 502.421C150.127 502.129 148.87 501.691 147.545 501.107L148.488 497.941C151.115 499.064 153.305 499.625 155.056 499.625ZM166.701 496.021V486.758H164.444V484.333L166.869 483.862L167.644 479.213H170.642V483.794H174.582V486.826H170.608V496.189C170.608 497.694 170.698 498.626 170.877 498.985C171.079 499.322 171.585 499.49 172.393 499.49L174.549 499.389V502.522C173.785 502.701 172.898 502.791 171.888 502.791C170.114 502.791 168.8 502.331 167.947 501.41C167.116 500.467 166.701 498.671 166.701 496.021ZM194.178 492.585C194.178 495.954 193.572 498.513 192.36 500.265C191.147 501.994 189.092 502.858 186.196 502.858C183.321 502.858 181.267 501.994 180.032 500.265C178.819 498.513 178.213 495.954 178.213 492.585C178.213 489.217 178.819 486.657 180.032 484.906C181.267 483.154 183.321 482.279 186.196 482.279C189.092 482.279 191.147 483.154 192.36 484.906C193.572 486.657 194.178 489.217 194.178 492.585ZM183.063 498.379C183.625 499.299 184.68 499.76 186.229 499.76C187.779 499.76 188.823 499.299 189.362 498.379C189.901 497.436 190.17 495.504 190.17 492.585C190.17 489.644 189.901 487.713 189.362 486.792C188.823 485.871 187.779 485.411 186.229 485.411C184.68 485.411 183.625 485.871 183.063 486.792C182.524 487.713 182.255 489.644 182.255 492.585C182.255 495.504 182.524 497.436 183.063 498.379ZM205.349 483.053C206.427 482.537 207.292 482.279 207.943 482.279C208.594 482.279 209.189 482.368 209.728 482.548L209.425 486.051C208.863 486.006 208.358 485.984 207.909 485.984C206.225 485.984 204.687 486.478 203.295 487.466V502.421H199.388V482.716H201.846C202.048 483.772 202.217 484.457 202.352 484.771H202.554C203.362 484.12 204.294 483.547 205.349 483.053ZM213.879 508.012L216.641 500.602L209.77 482.716H214.115L218.292 496.594H218.46L222.569 482.716H226.679L219.774 501.275L217.921 508.012H213.879ZM235.841 499.625C236.717 499.625 237.379 499.423 237.828 499.019C238.277 498.614 238.502 497.963 238.502 497.065C238.502 496.167 238.21 495.527 237.626 495.145C237.042 494.741 236.357 494.427 235.571 494.202C234.785 493.955 234.348 493.82 234.258 493.798C234.168 493.753 233.91 493.663 233.483 493.528C233.056 493.394 232.652 493.259 232.271 493.124C231.889 492.99 231.395 492.765 230.789 492.451C230.205 492.136 229.778 491.799 229.509 491.44C228.768 490.542 228.397 489.419 228.397 488.072C228.397 486.298 228.958 484.895 230.081 483.862C231.226 482.806 232.877 482.279 235.032 482.279C237.211 482.279 239.344 482.638 241.432 483.356L240.826 486.455C238.491 485.894 236.616 485.613 235.201 485.613C233.809 485.613 232.944 485.804 232.607 486.186C232.293 486.545 232.136 487.061 232.136 487.735C232.136 488.409 232.45 488.959 233.079 489.386C233.73 489.79 234.64 490.171 235.807 490.531C236.997 490.868 237.716 491.081 237.963 491.171C238.21 491.238 238.592 491.373 239.108 491.575C239.624 491.755 239.984 491.923 240.186 492.08C240.41 492.237 240.691 492.462 241.028 492.754C241.365 493.023 241.612 493.326 241.769 493.663C242.128 494.472 242.308 495.37 242.308 496.358C242.308 498.334 241.713 499.917 240.523 501.107C239.355 502.275 237.693 502.858 235.538 502.858C234.46 502.858 233.315 502.712 232.102 502.421C230.912 502.129 229.655 501.691 228.33 501.107L229.273 497.941C231.9 499.064 234.089 499.625 235.841 499.625Z" fill="#FDFFFC"/>
</svg>
